<?xml version="1.0" standalone="no"?><!DOCTYPE svg PUBLIC "-//W3C//DTD SVG 1.1//EN" "http://www.w3.org/Graphics/SVG/1.1/DTD/svg11.dtd"><svg t="1745556830936" class="icon" viewBox="0 0 1024 1024" version="1.1" xmlns="http://www.w3.org/2000/svg" p-id="26731" xmlns:xlink="http://www.w3.org/1999/xlink" width="200" height="200"><path d="M918.766933 851.831467V972.8l-498.141866-0.341333 143.018666-85.435734 184.0128-36.4544h-2.048l43.997867-120.046933L921.6 670.5152v181.3504l-2.833067-0.034133zM537.838933 130.56c0 43.8272-34.884267 79.36-77.892266 79.36s-77.9264-35.5328-77.9264-79.36c0-43.8272 34.884267-79.36 77.9264-79.36 43.008 0 77.892267 35.498667 77.892266 79.36z m-329.728 305.698133c-7.031467 0-14.2336-1.399467-21.162666-4.369066a55.944533 55.944533 0 0 1-29.013334-72.8064L205.175467 245.077333a54.203733 54.203733 0 0 1 71.441066-29.5936 55.944533 55.944533 0 0 1 29.013334 72.8064l-47.240534 114.039467c-8.8064 21.1968-29.013333 33.962667-50.2784 33.962667z m611.259734 177.8688a24.029867 24.029867 0 0 1-10.274134 32.017067 23.313067 23.313067 0 0 1-31.402666-10.478933l-123.0848-246.954667-38.775467 33.109333-14.7456 12.731734-3.6864 3.1744-1.911467 1.6384-3.6864 2.730666a52.565333 52.565333 0 0 1-53.316266 3.1744 53.486933 53.486933 0 0 1-15.2576-11.4688l-7.0656-7.3728c-18.773333-19.592533-38.024533-38.741333-57.070934-58.094933l-58.0608 140.014933 31.6416 22.869334 40.174934 28.945066 20.206933 14.267734c2.56 1.809067 9.1136 6.144 13.346133 9.898666a120.968533 120.968533 0 0 1 24.1664 27.204267c1.6384 2.525867 3.1744 5.12 4.676267 7.7824l2.935467 5.666133 34.4064 66.423467 46.3872 88.2688a27.272533 27.272533 0 0 1-10.888534 36.5568 26.248533 26.248533 0 0 1-34.235733-8.2944l-56.456533-81.92-28.4672-40.823467-14.2336-20.445866-3.4816-4.949334-2.184534-2.56a43.588267 43.588267 0 0 0-10.24-8.192c-2.2528-1.365333-2.730667-1.3312-7.168-3.6864l-21.981866-11.264-44.1344-22.1184c-29.422933-14.779733-58.845867-29.5936-88.610134-43.758933a53.998933 53.998933 0 0 1-9.557333-5.7344 72.157867 72.157867 0 0 1-25.019733-86.766933l82.056533-197.905067a69.700267 69.700267 0 0 1 91.886933-37.9904c9.557333 4.096 17.578667 10.205867 24.1664 17.476267l0.682667 0.546133c1.570133 1.536 3.106133 3.413333 4.369067 5.12 30.378667 42.5984 61.3376 84.6848 92.706133 126.429867l5.632 7.509333a1.501867 1.501867 0 0 0-0.170667 0.6144c0 0.443733 0.443733 0.955733 1.024 1.2288a2.116267 2.116267 0 0 0 0.955734 0.238933h0.341333l1.911467-1.3312 4.061866-2.730666 16.145067-10.820267 47.991467-32.6656-34.6112-69.393067a23.995733 23.995733 0 0 1 10.274133-31.982933 23.176533 23.176533 0 0 1 31.402667 10.4448l176.2304 353.621333zM364.817067 654.677333l25.3952 12.731734-4.676267 46.353066-2.389333 25.668267a189.952 189.952 0 0 1-5.9392 29.969067c-6.212267 21.1968-13.038933 33.518933-19.012267 48.674133l-18.705067 44.066133-36.829866 88.405334a26.385067 26.385067 0 0 1-34.816 14.336 27.170133 27.170133 0 0 1-15.121067-32.256l25.668267-92.398934 12.561066-46.2848c3.822933-15.1552 9.454933-32.3584 10.4448-42.257066 0.750933-5.802667 1.024-11.639467 0.8192-17.408l-1.194666-22.186667-2.935467-47.991467c-0.887467-14.609067-1.774933-29.218133-2.730667-43.8272 22.7328 11.025067 45.499733 22.357333 67.720534 33.518934l1.706666 0.887466z" fill="#000000" p-id="26732"></path></svg>